<svg width="126" height="72" viewBox="0 0 126 72" fill="none" xmlns="http://www.w3.org/2000/svg">
<g clip-path="url(#clip0_29_561)">
<path d="M21.3073 25.1922H24.222V27.3128C25.1609 25.9869 26.4867 24.9272 28.5589 24.9272C31.5466 24.9272 34.4613 27.2876 34.4613 31.5288V31.576C34.4613 35.792 31.5705 38.1776 28.5589 38.1776C26.4389 38.1776 25.1137 37.1179 24.222 35.9368V41.7662H21.3073V25.1922ZM31.4988 31.576V31.5288C31.4988 29.0709 29.8357 27.4569 27.8598 27.4569C25.8839 27.4569 24.1497 29.0948 24.1497 31.5288V31.576C24.1497 34.0093 25.8845 35.6479 27.8598 35.6479C29.8602 35.6479 31.4988 34.0823 31.4988 31.576Z" fill="white"/>
<path d="M36.7733 31.6012V31.5527C36.7733 27.9143 39.3508 24.9272 42.9891 24.9272C47.0372 24.9272 49.0854 28.1082 49.0854 31.7698C49.0854 32.0354 49.0615 32.2996 49.0369 32.5891H39.6887C40.0014 34.6606 41.4714 35.8178 43.351 35.8178C44.7725 35.8178 45.7843 35.2874 46.7962 34.2988L48.5065 35.8178C47.3008 37.2632 45.6396 38.2021 43.3025 38.2021C39.6163 38.2021 36.7733 35.5277 36.7733 31.6012ZM46.194 30.6611C46.0008 28.7815 44.8933 27.3121 42.9652 27.3121C41.1819 27.3121 39.9291 28.6852 39.6641 30.6611H46.1933H46.194Z" fill="white"/>
<path d="M51.5654 25.1922H54.4801V27.1435C55.3 25.963 56.4799 24.9272 58.4558 24.9272C61.3227 24.9272 62.9852 26.8547 62.9852 29.7946V37.9139H60.0704V30.6862C60.0704 28.7104 59.0825 27.5783 57.3476 27.5783C55.6612 27.5783 54.4801 28.7588 54.4801 30.7347V37.9139H51.5654V25.1922Z" fill="white"/>
<path d="M81.1492 25.0964V25.0441C81.1492 23.583 80.6313 22.2597 79.6899 21.3183C78.4786 20.107 76.5883 19.4399 74.3683 19.4399H66.3314V38.0773H68.7251V30.9623H73.7107L78.9713 38.0113L79.0204 38.0773H81.9678L76.3045 30.5432C79.3879 29.8951 81.1492 27.9217 81.1492 25.0964ZM68.7244 21.6763H74.2109C77.0401 21.6763 78.7303 22.9651 78.7303 25.1234V25.1756C78.7303 27.3642 76.9463 28.7788 74.1858 28.7788H68.7251V21.6763H68.7244Z" fill="white"/>
<path d="M89.9356 25.0352C86.1947 25.0352 83.2648 27.9656 83.2648 31.7059V31.7544C83.2648 35.4683 86.1739 38.378 89.8884 38.378C93.6432 38.378 96.5837 35.4475 96.5837 31.7059V31.6587C96.5837 27.9449 93.664 25.0352 89.9356 25.0352ZM89.9356 36.3669C87.4576 36.3669 85.5163 34.3199 85.5163 31.7059V31.6587C85.5163 29.0152 87.3959 27.0217 89.8884 27.0217C92.3809 27.0217 94.3329 29.0794 94.3329 31.7059V31.7544C94.3329 34.3841 92.4419 36.3669 89.9356 36.3669Z" fill="white"/>
<path d="M104.203 25.132C102.183 25.132 100.746 25.6631 99.6067 26.1828L99.4595 26.2502L100.133 28.0958L100.306 28.0165C101.324 27.5496 102.477 27.1185 104.01 27.1185C106.286 27.1185 107.54 28.2613 107.54 30.336V30.5379C106.604 30.2844 105.499 30.0635 103.89 30.0635C100.502 30.0635 98.3973 31.6706 98.3973 34.2575V34.3047C98.3973 36.9633 100.822 38.3546 103.217 38.3546C105.351 38.3546 106.715 37.429 107.54 36.5209V38.0897H109.671V30.3108C109.671 28.698 109.224 27.4338 108.345 26.5535C107.401 25.6102 106.008 25.1313 104.203 25.1313V25.132ZM103.578 36.536C102.156 36.536 100.625 35.8155 100.625 34.233V34.1858C100.625 32.6831 101.918 31.7864 104.083 31.7864C105.252 31.7864 106.393 31.9456 107.565 32.2722V33.3438C107.565 35.1643 105.851 36.5367 103.579 36.5367L103.578 36.536Z" fill="white"/>
<path d="M123.01 20.1748V27.3244C121.806 25.8054 120.265 25.0358 118.421 25.0358C115.455 25.0358 112.303 27.366 112.303 31.6827V31.7312C112.303 36.0334 115.455 38.3547 118.421 38.3547C120.267 38.3547 121.772 37.5688 123.01 35.9554V38.0898H125.213V20.1748H123.01ZM123.082 31.6588V31.706C123.082 34.5704 120.838 36.343 118.758 36.343C116.361 36.343 114.554 34.3495 114.554 31.706V31.6588C114.554 28.9423 116.283 27.0457 118.758 27.0457C120.883 27.0457 123.082 28.7711 123.082 31.6588Z" fill="white"/>
<path d="M89.392 44.8594H90.6429L94.0233 52.5961H92.5968L91.8178 50.7411H88.1857L87.3947 52.5961H86.0122L89.392 44.8594ZM91.3238 49.5455L89.996 46.4722L88.679 49.5455H91.3238Z" fill="white"/>
<path d="M97.6422 49.337V44.9146H98.9919V49.2822C98.9919 50.7088 99.7269 51.4658 100.934 51.4658C102.131 51.4658 102.866 50.7522 102.866 49.337V44.9146H104.216V49.2709C104.216 51.5652 102.921 52.7167 100.912 52.7167C98.9152 52.7167 97.6415 51.5652 97.6415 49.3364L97.6422 49.337Z" fill="white"/>
<path d="M110.655 46.166H108.219V44.915H114.453V46.166H112.016V52.5964H110.655V46.166Z" fill="white"/>
<path d="M117.819 48.7784V48.7563C117.819 46.5936 119.487 44.7832 121.847 44.7832C124.208 44.7832 125.852 46.5716 125.852 48.7331V48.7557C125.852 50.9179 124.184 52.7276 121.825 52.7276C119.466 52.7276 117.819 50.9399 117.819 48.7784ZM124.436 48.7784V48.7563C124.436 47.2631 123.35 46.0235 121.825 46.0235C120.299 46.0235 119.235 47.2411 119.235 48.7331V48.7557C119.235 50.2483 120.321 51.4766 121.847 51.4766C123.373 51.4766 124.436 50.271 124.436 48.7784Z" fill="white"/>
<path d="M12.6677 37.6587C11.7836 36.9099 10.9114 36.0661 10.0726 35.148C10.6169 35.0775 11.143 34.941 11.6389 34.7421C14.9286 33.4207 16.5307 29.669 15.2093 26.3793C14.5517 24.7426 13.2472 23.452 11.6061 22.8026C12.9842 22.318 14.3843 21.9405 15.7712 21.6787C16.88 22.6641 17.7194 23.8547 18.2668 25.2177C20.2144 30.0667 17.8541 35.596 13.005 37.5436C12.9257 37.5757 12.8458 37.6015 12.7659 37.6273C12.7331 37.638 12.7004 37.6487 12.6683 37.6594L12.6677 37.6587Z" fill="white"/>
<path d="M9.47474 38.2279C5.58214 38.2279 2.1294 35.8934 0.678324 32.2814C0.433542 31.6723 0.251057 31.021 0.134644 30.3458C1.33967 29.0357 2.6586 27.8445 4.05682 26.8037C4.06185 26.8163 4.06626 26.8295 4.07192 26.8421C5.79861 31.1418 8.44401 34.8614 11.9351 37.9001C11.1316 38.1172 10.3047 38.2279 9.47474 38.2279Z" fill="white"/>
<path d="M4.37906 25.7653C3.89327 24.4388 3.5025 23.0526 3.21619 21.643C4.03737 20.9194 4.95357 20.3512 5.94088 19.9547C7.06914 19.5017 8.25215 19.272 9.45718 19.272C11.4765 19.272 13.475 19.934 15.1067 21.1396C13.4083 21.4933 11.7521 21.991 10.1815 22.6221C8.14958 23.4383 6.19888 24.4955 4.37906 25.7653Z" fill="white"/>
<path d="M0.0302424 29.4931C-0.185594 26.7804 0.760812 24.1337 2.6467 22.1748C2.9412 23.5258 3.33448 24.8649 3.81775 26.1599C2.47932 27.1422 1.2057 28.2623 0.0302424 29.4931Z" fill="white"/>
</g>
<defs>
<clipPath id="clip0_29_561">
<rect width="125.852" height="33.98" fill="white" transform="translate(0 19.0098)"/>
</clipPath>
</defs>
</svg>
