<svg width="126" height="72" viewBox="0 0 126 72" fill="none" xmlns="http://www.w3.org/2000/svg">
<g clip-path="url(#clip0_29_560)">
<path d="M50.0963 28.669H37.4978V31.4549H42.1492V43.3309H45.4498V31.4549H50.1012V28.669M62.4177 38.3529C62.1637 38.9931 61.7503 39.5577 61.2169 39.9933C60.6834 40.4289 60.0475 40.721 59.3695 40.8419C59.1179 40.8869 58.863 40.9101 58.6074 40.9112C58.3452 40.9112 58.0879 40.8865 57.8404 40.8419C57.163 40.7212 56.5277 40.429 55.995 39.9934C55.4623 39.5577 55.05 38.993 54.7972 38.3529C54.5025 37.6026 54.3514 36.8036 54.3519 35.9975C54.352 35.193 54.5031 34.3958 54.7972 33.647C55.0497 33.0063 55.4618 32.4408 55.9945 32.0043C56.5272 31.5678 57.1626 31.2747 57.8404 31.1531C58.3475 31.0593 58.8674 31.0593 59.3744 31.1531C60.0517 31.2743 60.6868 31.5666 61.2194 32.0022C61.752 32.4378 62.1645 33.0023 62.4177 33.6421C63.0084 35.1568 63.0084 36.8382 62.4177 38.3529ZM58.6074 28.2286C56.5463 28.2286 54.5697 29.0474 53.1122 30.5048C51.6548 31.9622 50.8361 33.9389 50.8361 36C50.8361 38.0611 51.6548 40.0377 53.1122 41.4952C54.5697 42.9526 56.5463 43.7713 58.6074 43.7713C60.6685 43.7713 62.6452 42.9526 64.1026 41.4952C65.56 40.0377 66.3788 38.0611 66.3788 36C66.3788 33.9389 65.56 31.9622 64.1026 30.5048C62.6452 29.0474 60.6685 28.2286 58.6074 28.2286ZM66.4258 28.6739H70.3152L73.9424 34.9732L77.5695 28.669H81.454L75.5902 37.9076V43.3309H72.2946V37.9076L66.4258 28.669M89.2872 40.9112C89.5445 40.9112 89.8018 40.8865 90.0492 40.8419C90.7267 40.7212 91.362 40.429 91.8947 39.9934C92.4274 39.5577 92.8397 38.993 93.0925 38.3529C93.6868 36.8406 93.6868 35.1594 93.0925 33.647C92.8397 33.007 92.4274 32.4422 91.8947 32.0066C91.362 31.5709 90.7267 31.2788 90.0492 31.158C89.542 31.067 89.0225 31.067 88.5152 31.158C87.8387 31.2796 87.2044 31.572 86.6726 32.0077C86.1409 32.4433 85.7293 33.0076 85.477 33.647C85.1827 34.3957 85.0317 35.193 85.0316 35.9975C85.0316 36.8288 85.19 37.6255 85.477 38.3529C85.7293 38.9932 86.1415 39.5582 86.6743 39.9939C87.207 40.4296 87.8425 40.7216 88.5202 40.8419C88.7733 40.8875 89.03 40.9107 89.2872 40.9112ZM81.5183 35.9975C81.5183 33.937 82.3368 31.961 83.7937 30.504C85.2507 29.0471 87.2267 28.2286 89.2872 28.2286C91.3476 28.2286 93.3237 29.0471 94.7806 30.504C96.2376 31.961 97.0561 33.937 97.0561 35.9975C97.0561 38.0579 96.2376 40.034 94.7806 41.4909C93.3237 42.9479 91.3476 43.7664 89.2872 43.7664C87.2267 43.7664 85.2507 42.9479 83.7937 41.4909C82.3368 40.034 81.5183 38.0579 81.5183 35.9975ZM119.556 37.5315L117.399 31.737L115.236 37.5265H119.556M120.511 40.0947H114.276L113.074 43.321H109.402L115.34 28.6591H119.447L125.385 43.321H121.724L120.511 40.0947ZM110.372 28.669H97.7736V31.4549H102.425V43.3309H105.726V31.4549H110.367V28.669M24.0383 26.7292C21.7416 26.033 19.3519 25.6925 16.9522 25.7198C14.5525 25.6925 12.1628 26.033 9.86621 26.7292C4.62096 28.4166 1.00867 31.9201 1.00867 35.9579C1.00867 41.6436 8.13429 46.2802 16.9522 46.2802C25.7504 46.2802 32.8958 41.6633 32.8958 35.9579C32.8958 31.9201 29.2934 28.4166 24.0383 26.7292ZM16.9522 41.8514C15.636 41.8514 14.5622 39.2782 14.5028 36.0173C15.2846 36.1014 16.1061 36.1212 16.9522 36.1212C17.7935 36.1212 18.6198 36.0816 19.4066 36.0222C19.3423 39.2733 18.2685 41.8514 16.9522 41.8514ZM14.6661 33.4887C15.0125 31.1976 15.9032 29.5943 16.9522 29.5943C17.9815 29.5943 18.8673 31.1976 19.2384 33.4837C17.7174 33.6197 16.1874 33.6214 14.6661 33.4887ZM20.6388 33.3006C20.1043 29.7378 18.6594 27.1647 16.9522 27.1647C15.2451 27.1647 13.8001 29.718 13.2657 33.3006C10.0295 32.786 7.76316 31.6528 7.76316 30.3118C7.76316 28.5007 11.8851 27.036 16.9522 27.036C22.0194 27.036 26.1463 28.5007 26.1463 30.3118C26.1463 31.6479 23.8799 32.8058 20.6437 33.3006H20.6388ZM3.33439 35.5868C3.33439 33.8351 4.01726 32.2071 5.19002 30.7869C5.17023 30.8858 5.17023 30.9947 5.17023 31.0739C5.17023 33.2808 8.46583 35.1315 13.0579 35.8342V36.329C13.0579 40.4065 14.196 43.8703 15.7597 45.0629C8.79737 44.6522 3.33934 40.5698 3.33934 35.5868H3.33439ZM18.1497 45.0876C19.7134 43.8901 20.8466 40.4263 20.8466 36.3488V35.854C25.4387 35.1761 28.7343 33.3006 28.7343 31.0986C28.7343 30.9947 28.7343 30.8908 28.7145 30.8067C29.8833 32.1355 30.5411 33.837 30.5701 35.6066C30.5701 40.5698 25.1121 44.6522 18.1497 45.0827V45.0876Z" fill="white"/>
</g>
<defs>
<clipPath id="clip0_29_560">
<rect width="124.394" height="20.5604" fill="white" transform="translate(1 25.7202)"/>
</clipPath>
</defs>
</svg>
