<svg width="12" height="24" viewBox="0 0 12 24" fill="none" xmlns="http://www.w3.org/2000/svg">
<g clip-path="url(#clip0_18_1306)">
<path d="M8.14039 12.6001C8.10483 12.7902 8.06482 12.8991 8.00148 13.0246C7.88368 13.2591 7.64697 13.3869 7.31468 13.4314C7.18355 13.4481 7.00907 13.4425 7.00907 13.4425L7.70587 14.4327H6.67234L5.70439 13.0558C5.70439 13.0558 6.54677 13.0535 6.63456 13.0535C6.83682 13.0535 7.10353 12.9946 7.17799 12.8557C7.20022 12.8146 7.23245 12.7424 7.23356 12.6679C7.23356 12.5746 7.14354 12.4957 6.98907 12.4957C6.8346 12.4957 5.47323 12.4945 5.47323 12.4945L4.99426 14.4071H4.0163L4.63085 12.0233C4.63085 12.0233 6.94906 12.0233 7.43137 12.0233C7.95592 12.0233 8.20152 12.2878 8.14151 12.6001" fill="white"/>
<path d="M7.81926 6.53011H6.20896L6.05782 6.98353H6.85797L6.72683 7.42027H5.43659C5.15543 7.42027 5.03763 7.35137 5.06541 7.15356C5.09764 6.92907 5.18099 6.73904 5.25656 6.53122C5.41215 6.11114 5.63552 6.00446 6.56903 6.00446C7.06356 6.00446 7.96595 6.00446 7.96595 6.00446L8.11376 5.53104C8.11376 5.53104 6.7824 5.53104 6.43567 5.53104C5.06875 5.53104 4.60088 5.69107 4.33861 6.36008C4.25082 6.58679 4.11746 7.00575 4.05856 7.35026C3.98855 7.757 4.30305 7.91592 4.63756 7.92704C5.09987 7.94259 7.42363 7.93481 7.42363 7.93481L7.81815 6.529L7.81926 6.53011Z" fill="white"/>
<path d="M5.43659 20.4082C5.15543 20.4082 5.03763 20.3393 5.06541 20.1415C5.09764 19.917 5.18099 19.727 5.25656 19.5192C5.41215 19.0991 5.63552 18.9924 6.56903 18.9924C7.06356 18.9924 7.96595 18.9924 7.96595 18.9924L8.11376 18.519C8.11376 18.519 6.7824 18.519 6.43567 18.519C5.06875 18.519 4.60088 18.679 4.33861 19.348C4.25082 19.5747 4.11746 19.9937 4.05856 20.3382C3.98855 20.7449 4.30305 20.9039 4.63756 20.915C5.09987 20.9305 7.42363 20.9228 7.42363 20.9228L7.56921 20.4038L5.43548 20.4082H5.43659Z" fill="white"/>
<path d="M10.8331 14.3949V13.3814C10.8331 13.2047 10.9765 13.0624 11.1521 13.0624H11.6799C11.8566 13.0624 11.9989 12.9191 11.9989 12.7435V0.318948C11.9989 0.142249 11.8555 0 11.6799 0H0.318948C0.14336 0 0 0.14336 0 0.318948V2.01371C0 2.19041 0.14336 2.33265 0.318948 2.33265H0.843489C1.02019 2.33265 1.16244 2.47601 1.16244 2.6516V14.8572C1.16244 15.0339 1.01908 15.1761 0.843489 15.1761H0.318948C0.142249 15.1761 0 15.3195 0 15.4951V17.5699C0 17.7466 0.14336 17.8889 0.318948 17.8889H0.843489C1.02019 17.8889 1.16244 18.0322 1.16244 18.2078V19.8437C1.16244 20.0204 1.01908 20.1626 0.843489 20.1626H0.318948C0.142249 20.1626 0 20.306 0 20.4816V23.6755C0 23.8522 0.14336 23.9944 0.318948 23.9944H11.6799C11.8566 23.9944 11.9989 23.8511 11.9989 23.6755V20.4816C11.9989 20.3049 11.8555 20.1626 11.6799 20.1626H11.1521C10.9754 20.1626 10.8331 20.0193 10.8331 19.8437V18.2078C10.8331 18.0311 10.9765 17.8889 11.1521 17.8889H11.6799C11.8566 17.8889 11.9989 17.7455 11.9989 17.5699V15.4862C11.9989 15.3095 11.8555 15.1673 11.6799 15.1673H11.1521C10.9754 15.1673 10.8331 15.0239 10.8331 14.8483V14.3927V14.3949ZM2.16596 1.16577C2.16596 0.890165 2.38933 0.665679 2.66605 0.665679H9.83293C10.1085 0.665679 10.333 0.889053 10.333 1.16577V2.72828C10.333 3.00389 10.1096 3.22838 9.83293 3.22838H7.96592C7.3847 2.90165 6.71458 2.71384 6 2.71384C5.28542 2.71384 4.6153 2.90054 4.03408 3.22838H2.66716C2.39155 3.22838 2.16707 3.005 2.16707 2.72828V1.16577H2.16596ZM6 10.3886C7.56807 10.3886 8.84053 11.6599 8.84053 13.2291C8.84053 14.7983 7.56918 16.0696 6 16.0696C4.43082 16.0696 3.15947 14.7983 3.15947 13.2291C3.15947 11.6599 4.43082 10.3886 6 10.3886ZM3.15947 6.73458C3.15947 5.16651 4.43082 3.89405 6 3.89405C7.56918 3.89405 8.84053 5.1654 8.84053 6.73458C8.84053 8.30376 7.56918 9.57511 6 9.57511C4.43082 9.57511 3.15947 8.30376 3.15947 6.73458ZM8.8283 10.1174C8.8283 9.83849 9.0539 9.61289 9.33284 9.61289C9.61178 9.61289 9.83738 9.83849 9.83738 10.1174C9.83738 10.3964 9.61178 10.622 9.33284 10.622C9.0539 10.622 8.8283 10.3964 8.8283 10.1174ZM8.8283 4.23745C8.8283 3.95851 9.0539 3.73291 9.33284 3.73291C9.61178 3.73291 9.83738 3.95851 9.83738 4.23745C9.83738 4.51639 9.61178 4.74199 9.33284 4.74199C9.0539 4.74199 8.8283 4.51639 8.8283 4.23745ZM2.66716 3.73291C2.9461 3.73291 3.1717 3.95851 3.1717 4.23745C3.1717 4.51639 2.9461 4.74199 2.66716 4.74199C2.38822 4.74199 2.16262 4.51639 2.16262 4.23745C2.16262 3.95851 2.38822 3.73291 2.66716 3.73291ZM2.66716 9.61178C2.9461 9.61178 3.1717 9.83738 3.1717 10.1163C3.1717 10.3953 2.9461 10.6209 2.66716 10.6209C2.38822 10.6209 2.16262 10.3953 2.16262 10.1163C2.16262 9.83738 2.38822 9.61178 2.66716 9.61178ZM2.66716 15.9907C2.9461 15.9907 3.1717 16.2163 3.1717 16.4953C3.1717 16.7742 2.9461 16.9998 2.66716 16.9998C2.38822 16.9998 2.16262 16.7742 2.16262 16.4953C2.16262 16.2163 2.38822 15.9907 2.66716 15.9907ZM1.66364 22.8331C1.66364 23.2332 1.19467 23.5232 0.77681 23.1832C0.703464 23.1243 0.663456 23.032 0.663456 22.9376V21.394C0.663456 21.2995 0.703464 21.2084 0.77681 21.1484C1.19467 20.8083 1.66364 21.0984 1.66364 21.4984V22.832V22.8331ZM1.16355 17.0009C0.884608 17.0009 0.659011 16.7753 0.659011 16.4964C0.659011 16.2174 0.884608 15.9918 1.16355 15.9918C1.44249 15.9918 1.66809 16.2174 1.66809 16.4964C1.66809 16.7753 1.44249 17.0009 1.16355 17.0009ZM1.16355 1.67142C0.884608 1.67142 0.659011 1.44582 0.659011 1.16688C0.659011 0.887942 0.884608 0.662345 1.16355 0.662345C1.44249 0.662345 1.66809 0.887942 1.66809 1.16688C1.66809 1.44582 1.44249 1.67142 1.16355 1.67142ZM2.66716 23.3377C2.38822 23.3377 2.16262 23.1121 2.16262 22.8331C2.16262 22.5542 2.38822 22.3286 2.66716 22.3286C2.9461 22.3286 3.1717 22.5542 3.1717 22.8331C3.1717 23.1121 2.9461 23.3377 2.66716 23.3377ZM6 22.562C4.43193 22.562 3.15947 21.2906 3.15947 19.7214C3.15947 18.1523 4.43082 16.8809 6 16.8809C7.56918 16.8809 8.84053 18.1523 8.84053 19.7214C8.84053 21.2906 7.56918 22.562 6 22.562ZM9.33284 23.3377C9.0539 23.3377 8.8283 23.1121 8.8283 22.8331C8.8283 22.5542 9.0539 22.3286 9.33284 22.3286C9.61178 22.3286 9.83738 22.5542 9.83738 22.8331C9.83738 23.1121 9.61178 23.3377 9.33284 23.3377ZM9.33284 17.0009C9.0539 17.0009 8.8283 16.7753 8.8283 16.4964C8.8283 16.2174 9.0539 15.9918 9.33284 15.9918C9.61178 15.9918 9.83738 16.2174 9.83738 16.4964C9.83738 16.7753 9.61178 17.0009 9.33284 17.0009ZM11.3332 21.4995V22.8331C11.3332 23.1087 11.1098 23.3332 10.8331 23.3332C10.5564 23.3332 10.333 23.1098 10.333 22.8331V21.4995C10.333 21.2239 10.5564 20.9994 10.8331 20.9994C11.1098 20.9994 11.3332 21.2228 11.3332 21.4995ZM11.3377 16.4953C11.3377 16.7742 11.1121 16.9998 10.8331 16.9998C10.5542 16.9998 10.3286 16.7742 10.3286 16.4953C10.3286 16.2163 10.5542 15.9907 10.8331 15.9907C11.1121 15.9907 11.3377 16.2163 11.3377 16.4953ZM9.83293 12.3701C9.55733 12.3701 9.33284 12.1467 9.33284 11.87V11.2532C9.69957 11.2532 10.0652 11.0787 10.2919 10.7298C10.5531 10.3264 10.5242 9.78403 10.2241 9.40952C9.99296 9.12058 9.66179 8.98055 9.33284 8.98055C9.76625 8.33932 10.0185 7.56585 10.0185 6.73458C10.0185 6.26894 9.93851 5.82108 9.79292 5.40545C9.67846 5.07983 9.91739 4.73754 10.263 4.73754H10.8331C11.1087 4.73754 11.3332 4.96092 11.3332 5.23764V11.87C11.3332 12.1456 11.1098 12.3701 10.8331 12.3701H9.83293Z" fill="white"/>
<path d="M3.81403 2.44714V1.90148L3.3006 1.11356H3.62399L3.95627 1.64921L4.28411 1.11356H4.60862L4.09852 1.90148V2.44714H3.81403Z" fill="white"/>
<path d="M5.9067 2.44717L5.39105 1.11359H5.71445L6.08451 2.13933L6.45236 1.11359H6.77686L6.26344 2.44717H5.90781H5.9067Z" fill="white"/>
<path d="M8.4538 2.44717L8.19153 1.9693H7.98372V2.44717H7.69922V1.11359H8.32267C8.6005 1.11359 8.77053 1.29584 8.77053 1.54367C8.77053 1.79149 8.62272 1.90596 8.47825 1.93929L8.77831 2.44717H8.45269H8.4538ZM8.28266 1.35808H7.98483V1.72592H8.28266C8.39713 1.72592 8.4827 1.65369 8.4827 1.54144C8.4827 1.4292 8.39713 1.35696 8.28266 1.35696V1.35808Z" fill="white"/>
</g>
<defs>
<clipPath id="clip0_18_1306">
<rect width="12" height="24" fill="white"/>
</clipPath>
</defs>
</svg>
